<?xml version="1.0" encoding="utf-8"?>
<!-- Generator: Adobe Illustrator 19.1.1, SVG Export Plug-In . SVG Version: 6.00 Build 0)  -->
<svg version="1.1"  xmlns="http://www.w3.org/2000/svg" xmlns:xlink="http://www.w3.org/1999/xlink" x="0px" y="0px"
	 viewBox="0 0 48 48" enable-background="new 0 0 48 48" xml:space="preserve">
<path fill="#D32F2F" d="M42,29c0,0-3.4-4.5-10-4s-9.6,3.2-13,3s-7-1-7-1l-4,5L42,29z"/>
<path fill="#FFA000" d="M33,8h-2l-2,2V8h-2l-2,2V8h-2.4C21.8,6.2,20,5,18,5c-2.8,0-5,2.2-5,5c0,2.8,2.2,5,5,5c2,0,3.8-1.2,4.6-3H33
	l2-1V9L33,8z M16,11c-0.6,0-1-0.4-1-1c0-0.6,0.4-1,1-1c0.6,0,1,0.4,1,1C17,10.6,16.6,11,16,11z"/>
<path fill="#D67C05" d="M25,12V8h-2.4c0.3,0.6,0.4,1.3,0.4,2s-0.2,1.4-0.4,2H25z"/>
<path fill="#37474F" d="M8,32l33-3c0,0-6.8,10-15,10c-5.8,0-4,1-4,1S8.3,38.3,8,32z"/>
<polygon fill="#81D4FA" points="6,41 42,41 43,39 43,33 41,35 7,35 5,33 5,39 "/>
<path fill="#03A9F4" d="M39,43c-1.2,0-2.3-0.5-3-1.4c-0.7,0.8-1.8,1.4-3,1.4c-1.2,0-2.3-0.5-3-1.4c-0.7,0.8-1.8,1.4-3,1.4
	c-1.2,0-2.3-0.5-3-1.4c-0.7,0.8-1.8,1.4-3,1.4c-1.2,0-2.3-0.5-3-1.4c-0.7,0.8-1.8,1.4-3,1.4c-1.2,0-2.3-0.5-3-1.4
	c-0.7,0.8-1.8,1.4-3,1.4c-4,0-4-4-4-4h2c0,1.1,0.9,2,2,2c1.1,0,2-0.9,2-2h2c0,1.1,0.9,2,2,2c1.1,0,2-0.9,2-2h2c0,1.1,0.9,2,2,2
	c1.1,0,2-0.9,2-2h2c0,1.1,0.9,2,2,2c1.1,0,2-0.9,2-2h2c0,1.1,0.9,2,2,2c1.1,0,2-0.9,2-2h2c0,1.1,0.9,2,2,2c1.1,0,2-0.9,2-2h2
	C43,39,43,43,39,43z M43,33h-2c0,1.1-0.9,2-2,2c-1.1,0-2-0.9-2-2h-2c0,1.1-0.9,2-2,2c-1.1,0-2-0.9-2-2h-2c0,1.1-0.9,2-2,2
	c-1.1,0-2-0.9-2-2h-2c0,1.1-0.9,2-2,2c-1.1,0-2-0.9-2-2h-2c0,1.1-0.9,2-2,2c-1.1,0-2-0.9-2-2h-2c0,1.1-0.9,2-2,2c-1.1,0-2-0.9-2-2H5
	c0,0,0,4,4,4c1.2,0,2.3-0.5,3-1.4c0.7,0.8,1.8,1.4,3,1.4c1.2,0,2.3-0.5,3-1.4c0.7,0.8,1.8,1.4,3,1.4c1.2,0,2.3-0.5,3-1.4
	c0.7,0.8,1.8,1.4,3,1.4c1.2,0,2.3-0.5,3-1.4c0.7,0.8,1.8,1.4,3,1.4c1.2,0,2.3-0.5,3-1.4c0.7,0.8,1.8,1.4,3,1.4C43,37,43,33,43,33z"
	/>
<polyline fill="none" stroke="#37474F" stroke-width="2" stroke-linecap="round" stroke-linejoin="round" stroke-miterlimit="10" points="
	21,21 23,20 27,22 "/>
<path fill="#FF3D00" d="M24,25l3-4c0,0,10.4,0.8,15,8c0,0-5.5-4.8-15-2L24,25z"/>
<path fill="#B0BEC5" d="M7,24c0,0,2.8,0,4,0s2.1,1,4,1s9,0,9,0l3,2c0,0-3.2,1.7-8,2s-7-2-7-2c-2.4-1.8-5-2-5-2V24z"/>
</svg>
